<svg xmlns="http://www.w3.org/2000/svg" viewBox="0 0 1024 875">
    <path fill="#84dbff" d="M334.848 469.333l-85.701 223.682-174.568 77.966 105.33-232.454 154.939-69.194z" />
    <path fill="#54c0eb" d="M489.97 399.834l119.05 12.913 112.15 288.918L536.454 807.06H485.89L301.172 701.665l99.321-261.65 89.477-40.18z" />
    <path fill="#84dbff" d="M686.825 467.627l155.65 69.52 105.37 232.473-174.568-76.523-86.452-225.47z" />
    <path fill="#fff" d="M512.745 389.906l23.708 10.578V807.06l184.718-105.395-96.398-245.489-88.32-55.692v-21.176l30.59-13.665 50.787-11.816-42.383 64.077 111.378 49.744 86.452 225.449 174.568 76.523-105.37-232.474L595.34 426.797l59.759-35.185 216.18 103.648a28.56 28.56 0 0112.99 12.995l137.22 301.769c4.526 9.603 2.78 21.055-4.385 28.871-7.632 7.431-18.959 9.705-28.865 5.767L754.38 740.708S519.098 873.533 517.657 873.533a8.766 8.766 0 01-5.765 1.442c-1.441 0-5.765-1.462-5.765-1.462 0-.772-236.722-132.805-236.722-132.805L35.545 844.662c-9.44 3.938-20.38 1.624-27.424-5.767-8.078-7.268-10.433-19.064-5.764-28.871l135.696-300.328a28.56 28.56 0 0112.99-12.994l207.31-86.838-23.505 59.469-154.94 69.194L74.58 770.98l174.568-77.966L378.084 358.7l22.836 83.508-99.748 259.457L485.89 807.06V401.885l26.856-11.979z" />
    <path fill="#f1543f" d="M511.912 659.88a23.879 23.879 0 0021.659-12.994C553.87 613.67 725.555 320.57 725.555 213.713 725.555 96.481 629.116.02 511.912.02 394.708.02 298.27 96.48 298.27 213.713c0 108.298 171.787 399.977 191.984 433.173a24.931 24.931 0 0021.658 12.994z" />
    <path fill="#fff" d="M634.638 213.71c0-67.33-55.395-122.746-122.705-122.746S389.228 146.38 389.228 213.711s55.394 122.726 122.705 122.726h.101c67.25 0 122.604-55.353 122.604-122.642v-.084z" />
</svg>
