<svg xmlns="http://www.w3.org/2000/svg" fill-rule="evenodd" stroke-linejoin="round" stroke-miterlimit="2" clip-rule="evenodd" viewBox="0 0 512 512">
    <path fill="#ff1493" d="M.4-.7h512v512H.4z" />
    <path fill="#fff" fill-rule="nonzero" d="M361 235.9c10.3-78.3-46.4-130.1-105.5-130.1S136 161.6 149.9 235.9c-9.3 5.9-15.5 16.4-15.5 28.2v108.2c0 18.5 15 33.5 33.5 33.5h175.2c18.5 0 33.5-15 33.5-33.5V264.1c0-11.9-6.2-22.3-15.6-28.2zm-90.7 94.4v23.5c0 8.2-6.6 14.8-14.8 14.8-8.2 0-14.8-6.6-14.8-14.8v-23.5c-23.9-11.7-22.7-55.7 14.8-57.6 26.3-1.3 45 37.9 14.8 57.6zm51.7-99.7H189c-11.7-42.7 28-85.5 66.5-85.4 31.8 0 76.2 32.4 66.5 85.4z" />
</svg>
